<svg width="60" height="60" viewBox="0 0 60 60" fill="none" xmlns="http://www.w3.org/2000/svg">
<path d="M26.9589 13.0453L32.2564 23.9459C32.8597 23.9459 33.4631 23.9459 34.0665 23.9459C35.6209 23.9459 37.1345 23.9459 38.6583 24.0604L26.9589 0L14.0938 26.4237C16.4257 25.797 18.7877 25.2932 21.1706 24.9141L26.9589 13.0453ZM17.3867 23.5711L26.9589 4.00833L35.6721 21.9261H33.2279L28.4213 12.0458L26.9589 9.02655L25.4863 12.0354L20.1275 23.0609C19.2173 23.2171 18.3174 23.3941 17.3867 23.5711Z" fill="#2842EF"/>
<path d="M19.0626 59.9999C12.4357 56.5434 8.38589 51.9103 8.38589 46.8505C8.39687 45.134 8.84055 43.4491 9.67445 41.9572H47.3598L40.4977 27.8291C43.1055 27.5689 45.8156 27.4335 48.587 27.4335C52.1736 27.4224 55.757 27.6485 59.3148 28.1102L58.7114 27.8916L59.3148 28.1102L60 28.2039C59.3966 28.0165 58.783 27.85 58.1592 27.6834C51.98 26.1041 45.6312 25.3171 39.2603 25.3409H39.1376C37.5831 25.3409 36.0695 25.3409 34.5253 25.4762C34.0276 25.4762 33.5265 25.5074 33.022 25.5699C28.5325 25.8881 24.0818 26.6305 19.7273 27.7875L18.7046 28.079C16.4384 28.73 14.2204 29.5442 12.0675 30.5152C4.63269 33.9405 0 38.7193 0 44.0082C0 50.7963 7.63934 56.7412 19.0626 59.9999ZM34.5458 28.6516L37.8388 35.3981H16.0866C20.6886 32.3684 27.1007 29.9843 34.5458 28.6516Z" fill="#A25FFD"/>
</svg>
