<svg width="618" height="441" viewBox="0 0 618 441" fill="none" xmlns="http://www.w3.org/2000/svg">
<path d="M437.496 303.329L537.222 360.973L605.551 321.484L502.467 264.023L437.496 303.329ZM437.496 303.329L337.769 245.685L238.043 303.329L138.316 244.52L5.34766 322.549L105.074 380.194L238.043 303.329" stroke="white" stroke-linecap="round" stroke-linejoin="round"/>
<path d="M67.0195 399.414L105.082 380.194L171.566 418.618L238.05 380.194L104.65 303.579L171.799 265.021" stroke="white" stroke-linecap="round" stroke-linejoin="round"/>
<path d="M536.098 282.761L570.47 264.905L603.712 282.761" stroke="white" stroke-linecap="round" stroke-linejoin="round"/>
<path d="M503.087 342.286L371.015 418.618L337.773 437.838L304.531 418.618L238.047 380.194" stroke="white" stroke-linecap="round" stroke-linejoin="round"/>
<path d="M408.605 286.738L612.646 167.938" stroke="white" stroke-linecap="round" stroke-linejoin="round"/>
<path opacity="0.67" d="M337.856 441C340.812 441 343.208 439.584 343.208 437.838C343.208 436.092 340.812 434.676 337.856 434.676C334.9 434.676 332.504 436.092 332.504 437.838C332.504 439.584 334.9 441 337.856 441Z" fill="#6F6DFF"/>
<path opacity="0.67" d="M603.704 326.377C606.659 326.377 609.056 324.961 609.056 323.215C609.056 321.469 606.659 320.053 603.704 320.053C600.748 320.053 598.352 321.469 598.352 323.215C598.352 324.961 600.748 326.377 603.704 326.377Z" fill="#6F6DFF"/>
<path opacity="0.67" d="M104.461 383.356C107.417 383.356 109.813 381.94 109.813 380.194C109.813 378.448 107.417 377.032 104.461 377.032C101.506 377.032 99.1094 378.448 99.1094 380.194C99.1094 381.94 101.506 383.356 104.461 383.356Z" fill="#6F6DFF"/>
<path opacity="0.67" d="M5.35199 325.828C8.30781 325.828 10.704 324.412 10.704 322.666C10.704 320.92 8.30781 319.504 5.35199 319.504C2.39617 319.504 0 320.92 0 322.666C0 324.412 2.39617 325.828 5.35199 325.828Z" fill="#6F6DFF"/>
<path opacity="0.67" d="M170.645 344.981C173.601 344.981 175.997 343.566 175.997 341.82C175.997 340.073 173.601 338.658 170.645 338.658C167.689 338.658 165.293 340.073 165.293 341.82C165.293 343.566 167.689 344.981 170.645 344.981Z" fill="#2842EF"/>
<path opacity="0.67" d="M65.0434 402.676C67.9992 402.676 70.3954 401.26 70.3954 399.514C70.3954 397.768 67.9992 396.352 65.0434 396.352C62.0876 396.352 59.6914 397.768 59.6914 399.514C59.6914 401.26 62.0876 402.676 65.0434 402.676Z" fill="#2842EF"/>
<path opacity="0.67" d="M501.989 344.981C504.944 344.981 507.341 343.566 507.341 341.82C507.341 340.073 504.944 338.658 501.989 338.658C499.033 338.658 496.637 340.073 496.637 341.82C496.637 343.566 499.033 344.981 501.989 344.981Z" fill="#2842EF"/>
<path opacity="0.67" d="M612.649 171.099C615.605 171.099 618.001 169.684 618.001 167.938C618.001 166.191 615.605 164.776 612.649 164.776C609.693 164.776 607.297 166.191 607.297 167.938C607.297 169.684 609.693 171.099 612.649 171.099Z" fill="#2842EF"/>
<g opacity="0.7">
<g opacity="0.7">
<path opacity="0.7" d="M541.531 248.796L393.288 335.047C385.875 339.357 373.841 339.357 366.395 335.047L295.472 294.06C291.733 291.896 289.855 289.068 289.871 286.205V300.134C289.871 302.979 291.733 305.825 295.489 307.988L366.395 348.975C373.841 353.285 385.891 353.285 393.288 348.975L541.548 262.725C545.221 260.578 547.066 257.732 547.066 254.987V241.058C547.049 243.854 545.188 246.65 541.531 248.796Z" fill="url(#paint0_linear_197_2460)"/>
<g opacity="0.7">
<path opacity="0.7" d="M541.447 233.204C548.894 237.497 548.944 244.486 541.531 248.796L393.287 335.047C385.874 339.357 373.841 339.357 366.394 335.047L295.472 294.06C288.026 289.75 287.993 282.777 295.472 278.467L443.716 192.217C451.129 187.907 463.162 187.907 470.625 192.217L541.447 233.204Z" fill="url(#paint1_linear_197_2460)"/>
</g>
</g>
</g>
<g opacity="0.7">
<path opacity="0.7" d="M537.288 233.736C544.402 237.847 544.435 244.503 537.371 248.613L393.699 332.218C386.635 336.328 375.133 336.328 368.019 332.218L300.355 293.095C293.258 288.984 293.224 282.328 300.355 278.218L443.961 194.696C447.935 192.668 452.332 191.611 456.792 191.611C461.253 191.611 465.65 192.668 469.624 194.696L537.288 233.736Z" fill="url(#paint2_linear_197_2460)"/>
</g>
<path style="mix-blend-mode:multiply" d="M541.523 248.796L393.28 335.047C385.867 339.357 373.833 339.357 366.387 335.047L295.465 294.06C291.725 291.897 289.847 289.068 289.863 286.205V300.134C289.863 302.979 291.725 305.825 295.481 307.988L366.387 348.975C373.833 353.285 385.883 353.285 393.28 348.975L541.54 262.725C545.213 260.578 547.058 257.733 547.058 254.987V241.058C547.041 243.854 545.18 246.65 541.523 248.796Z" fill="url(#paint3_linear_197_2460)"/>
<path d="M532.547 249.113L401.556 325.179L312.234 273.542L443.225 197.475L532.547 249.113Z" fill="#8794EE"/>
<path opacity="0.2" d="M532.546 249.113L524.8 253.606L435.445 202.002L443.224 197.476L532.546 249.113Z" fill="#2B2A40"/>
<path d="M529.061 263.722C529.013 264.644 528.746 265.541 528.284 266.339C527.822 267.138 527.176 267.815 526.401 268.315L503.298 281.628C502.218 282.243 501.287 282.06 500.855 281.228C500.691 280.88 500.611 280.498 500.622 280.113C500.67 279.189 500.936 278.29 501.398 277.489C501.861 276.687 502.506 276.007 503.281 275.504L526.385 262.191C526.701 261.993 527.06 261.874 527.432 261.842C528.379 261.758 529.061 262.457 529.061 263.722Z" fill="#4158F0"/>
<path d="M527.681 262.925C527.632 263.848 527.365 264.747 526.903 265.548C526.441 266.349 525.796 267.03 525.022 267.534L501.918 280.847C501.596 281.045 501.232 281.165 500.855 281.196C500.691 280.848 500.611 280.466 500.622 280.081C500.67 279.157 500.936 278.258 501.398 277.457C501.861 276.656 502.506 275.975 503.281 275.472L526.385 262.159C526.701 261.961 527.06 261.842 527.432 261.81C527.599 262.157 527.684 262.539 527.681 262.925Z" fill="#2842EF"/>
<path d="M504.98 223.952C504.862 224.127 504.702 224.269 504.515 224.368C504.067 224.597 503.572 224.716 503.069 224.716C502.566 224.716 502.071 224.597 501.623 224.368L485.8 215.232C485.611 215.128 485.452 214.979 485.334 214.799C485.068 214.383 485.218 213.9 485.8 213.551C486.248 213.335 486.74 213.224 487.237 213.224C487.735 213.224 488.226 213.335 488.675 213.551L504.498 222.703C505.08 222.986 505.296 223.536 504.98 223.952Z" fill="#817EBF"/>
<path d="M504.978 223.952C504.86 224.127 504.7 224.27 504.513 224.368C504.065 224.598 503.57 224.717 503.067 224.717C502.564 224.717 502.068 224.598 501.621 224.368L485.797 215.232C485.609 215.128 485.449 214.98 485.332 214.8C485.451 214.625 485.61 214.482 485.797 214.384C486.242 214.155 486.735 214.035 487.235 214.035C487.735 214.035 488.228 214.155 488.673 214.384L504.496 223.52C504.685 223.629 504.849 223.776 504.978 223.952Z" fill="#ACA8FF"/>
<path d="M354.524 303.895C356.186 304.86 356.186 306.424 354.524 307.389L348.208 311.067C347.274 311.543 346.24 311.792 345.192 311.792C344.143 311.792 343.109 311.543 342.175 311.067L335.809 307.389C335.445 307.264 335.13 307.029 334.906 306.716C334.683 306.402 334.562 306.027 334.562 305.642C334.562 305.257 334.683 304.882 334.906 304.568C335.13 304.255 335.445 304.02 335.809 303.895L342.125 300.217C343.06 299.741 344.093 299.492 345.142 299.492C346.19 299.492 347.224 299.741 348.159 300.217L354.524 303.895Z" fill="#ACA8FF"/>
<path d="M352.713 304.228C353.007 304.33 353.261 304.521 353.441 304.774C353.621 305.028 353.718 305.331 353.718 305.642C353.718 305.953 353.621 306.256 353.441 306.51C353.261 306.763 353.007 306.954 352.713 307.057L347.611 310.019C346.859 310.4 346.027 310.599 345.184 310.599C344.341 310.599 343.509 310.4 342.757 310.019L337.621 307.057C337.328 306.954 337.074 306.763 336.894 306.51C336.714 306.256 336.617 305.953 336.617 305.642C336.617 305.331 336.714 305.028 336.894 304.774C337.074 304.521 337.328 304.33 337.621 304.228L342.724 301.265C343.476 300.884 344.308 300.685 345.151 300.685C345.994 300.685 346.825 300.884 347.577 301.265L352.713 304.228Z" fill="#ACA8FF"/>
<path d="M378.15 322.832C378.353 322.899 378.53 323.028 378.656 323.201C378.782 323.374 378.849 323.583 378.849 323.797C378.849 324.012 378.782 324.22 378.656 324.394C378.53 324.567 378.353 324.696 378.15 324.763C377.634 325.023 377.065 325.159 376.488 325.159C375.91 325.159 375.341 325.023 374.825 324.763L365.335 319.288C364.404 318.738 364.404 317.873 365.335 317.341C365.85 317.08 366.42 316.945 366.997 316.945C367.574 316.945 368.144 317.08 368.659 317.341L378.15 322.832Z" fill="#ACA8FF"/>
<path d="M324.874 291.98C325.076 292.051 325.25 292.182 325.373 292.357C325.497 292.531 325.563 292.74 325.563 292.953C325.563 293.167 325.497 293.376 325.373 293.55C325.25 293.724 325.076 293.856 324.874 293.927C324.359 294.187 323.789 294.323 323.212 294.323C322.635 294.323 322.065 294.187 321.55 293.927L312.059 288.435C311.856 288.369 311.678 288.24 311.553 288.066C311.427 287.893 311.359 287.684 311.359 287.47C311.359 287.256 311.427 287.047 311.553 286.874C311.678 286.7 311.856 286.571 312.059 286.505C312.575 286.245 313.144 286.109 313.721 286.109C314.299 286.109 314.868 286.245 315.383 286.505L324.874 291.98Z" fill="#ACA8FF"/>
<path d="M323.102 317.158C323.124 317.668 323.269 318.166 323.523 318.609C323.778 319.052 324.135 319.427 324.564 319.704L337.379 327.109C337.977 327.458 338.493 327.342 338.742 326.893C338.832 326.7 338.878 326.49 338.875 326.277C338.843 325.764 338.692 325.266 338.435 324.822C338.179 324.377 337.823 323.998 337.396 323.714L324.581 316.292C324.404 316.186 324.205 316.123 323.999 316.109C323.467 316.059 323.102 316.442 323.102 317.158Z" fill="#9A98CC"/>
<path d="M323.86 316.742C323.893 317.25 324.042 317.744 324.296 318.185C324.549 318.626 324.901 319.004 325.323 319.288L338.138 326.693C338.322 326.797 338.526 326.865 338.736 326.893C338.826 326.7 338.872 326.49 338.869 326.277C338.836 325.765 338.686 325.267 338.429 324.822C338.173 324.377 337.817 323.998 337.39 323.714L324.575 316.292C324.398 316.186 324.199 316.123 323.993 316.109C323.899 316.306 323.853 316.523 323.86 316.742Z" fill="#ACA8FF"/>
<path d="M344.243 329.238C344.252 329.525 344.176 329.809 344.027 330.054C343.744 330.486 343.196 330.57 342.564 330.203C342.076 329.889 341.67 329.462 341.381 328.959C341.092 328.455 340.927 327.889 340.902 327.308C340.902 326.592 341.235 326.176 341.733 326.126C342.028 326.115 342.318 326.197 342.564 326.359C343.051 326.673 343.457 327.097 343.748 327.597C344.04 328.098 344.21 328.66 344.243 329.238Z" fill="#9A98CC"/>
<path d="M344.25 329.239C344.259 329.526 344.184 329.809 344.034 330.055C343.74 330.063 343.45 329.982 343.203 329.822C342.719 329.503 342.317 329.074 342.028 328.572C341.74 328.069 341.573 327.505 341.541 326.926C341.466 326.789 341.449 326.628 341.492 326.478C341.536 326.329 341.637 326.202 341.774 326.127C341.91 326.052 342.071 326.035 342.221 326.078C342.371 326.122 342.497 326.223 342.572 326.36C343.058 326.674 343.464 327.098 343.755 327.598C344.047 328.099 344.217 328.661 344.25 329.239Z" fill="#ACA8FF"/>
<path opacity="0.2" d="M380.048 287.404L363.66 296.939L340.523 283.51L357.028 274.091L380.048 287.404Z" fill="#2B2A40"/>
<path opacity="0.2" d="M467.711 225.432L446.818 237.564L414.391 218.759L435.383 206.728L467.711 225.432Z" fill="#2B2A40"/>
<path opacity="0.2" d="M354.434 272.61L338.046 282.145L321.441 272.476L337.93 263.058L354.434 272.61Z" fill="#2B2A40"/>
<path opacity="0.2" d="M419.153 310.002L402.765 319.554L386.16 309.886L402.648 300.467L419.153 310.002Z" fill="#2B2A40"/>
<path opacity="0.2" d="M516.375 253.972L495.682 266.02L474.723 253.822L495.549 241.924L516.375 253.972Z" fill="#2B2A40"/>
<path opacity="0.2" d="M492.238 240.027L471.545 252.058L450.586 239.877L471.412 227.979L492.238 240.027Z" fill="#2B2A40"/>
<path opacity="0.2" d="M446.659 245.202L435.689 251.642L396.68 229.01L407.816 222.737L446.659 245.202Z" fill="#2B2A40"/>
<path opacity="0.2" d="M472.78 279.283L426.906 305.908L345.363 258.664L391.387 232.239L472.78 279.283Z" fill="#2B2A40"/>
<path opacity="0.2" d="M489.199 269.797L478.229 276.237L466.91 269.598L478.063 263.341L489.199 269.797Z" fill="#2B2A40"/>
<path opacity="0.2" d="M474.821 261.477L463.835 267.917L452.516 261.277L463.668 255.02L474.821 261.477Z" fill="#2B2A40"/>
<path opacity="0.2" d="M460.927 253.439L449.94 259.879L438.621 253.256L449.774 246.982L460.927 253.439Z" fill="#2B2A40"/>
<path opacity="0.2" d="M399.898 298.636L383.626 308.122L366.922 298.387L383.327 289.034L399.898 298.636Z" fill="#2B2A40"/>
<path opacity="0.7" d="M419.051 287.121V310.052" stroke="white" stroke-width="0.75" stroke-linecap="round" stroke-linejoin="round" stroke-dasharray="2 2"/>
<path opacity="0.7" d="M426.918 271.561V306.075" stroke="white" stroke-width="0.75" stroke-linecap="round" stroke-linejoin="round" stroke-dasharray="2 2"/>
<path opacity="0.7" d="M472.668 244.969V279.499" stroke="white" stroke-width="0.75" stroke-linecap="round" stroke-linejoin="round" stroke-dasharray="2 2"/>
<path opacity="0.7" d="M489.191 258.398V269.781" stroke="white" stroke-width="0.75" stroke-linecap="round" stroke-linejoin="round" stroke-dasharray="2 2"/>
<path opacity="0.7" d="M467.031 258.132V269.514" stroke="white" stroke-width="0.75" stroke-linecap="round" stroke-linejoin="round" stroke-dasharray="2 2"/>
<path opacity="0.7" d="M492.23 221.938V240.176" stroke="white" stroke-width="0.75" stroke-linecap="round" stroke-linejoin="round" stroke-dasharray="2 2"/>
<path opacity="0.7" d="M516.113 195.562V254.488" stroke="white" stroke-width="0.75" stroke-linecap="round" stroke-linejoin="round" stroke-dasharray="2 2"/>
<path opacity="0.7" d="M467.414 197.243V223.935" stroke="white" stroke-width="0.75" stroke-linecap="round" stroke-linejoin="round" stroke-dasharray="2 2"/>
<path opacity="0.7" d="M414.379 190.486V217.179" stroke="white" stroke-width="0.75" stroke-linecap="round" stroke-linejoin="round" stroke-dasharray="2 2"/>
<path opacity="0.7" d="M450.578 221.938V240.176" stroke="white" stroke-width="0.75" stroke-linecap="round" stroke-linejoin="round" stroke-dasharray="2 2"/>
<path opacity="0.7" d="M345.355 224.351V258.864" stroke="#DEDEDE" stroke-width="0.75" stroke-linecap="round" stroke-linejoin="round" stroke-dasharray="2 2"/>
<path opacity="0.7" d="M386.156 287.121V310.052" stroke="white" stroke-width="0.75" stroke-linecap="round" stroke-linejoin="round" stroke-dasharray="2 2"/>
<path opacity="0.7" d="M366.914 268.416V298.353" stroke="white" stroke-width="0.75" stroke-linecap="round" stroke-linejoin="round" stroke-dasharray="2 2"/>
<path opacity="0.7" d="M354.094 255.819V272.21" stroke="white" stroke-width="0.75" stroke-linecap="round" stroke-linejoin="round" stroke-dasharray="2 2"/>
<path opacity="0.7" d="M321.445 255.952V272.327" stroke="white" stroke-width="0.75" stroke-linecap="round" stroke-linejoin="round" stroke-dasharray="2 2"/>
<path opacity="0.7" d="M399.887 268.649V298.586" stroke="white" stroke-width="0.75" stroke-linecap="round" stroke-linejoin="round" stroke-dasharray="2 2"/>
<path d="M516.359 195.113L495.666 207.144L474.707 194.946L495.533 183.048L516.359 195.113Z" fill="#8794EE"/>
<path d="M467.515 197.076L446.822 209.124L414.395 190.237L435.221 178.338L467.515 197.076Z" fill="url(#paint4_linear_197_2460)"/>
<path d="M399.863 268.666L383.591 278.151L366.887 268.433L383.292 259.081L399.863 268.666Z" fill="url(#paint5_linear_197_2460)"/>
<g opacity="0.7">
<g opacity="0.7">
<path opacity="0.7" d="M419.075 287.137L402.803 296.623L386.082 286.888L402.487 277.535L419.075 287.137Z" fill="url(#paint6_linear_197_2460)"/>
</g>
</g>
<path d="M354.425 256.002L338.153 265.487L321.449 255.752L337.854 246.417L354.425 256.002Z" fill="#7789FF"/>
<g opacity="0.7">
<g opacity="0.7">
<path opacity="0.7" d="M472.769 245.052L426.861 271.778L345.352 224.584L391.375 198.008L472.769 245.052Z" fill="#ACA8FF"/>
</g>
</g>
<path d="M492.242 221.938L471.549 233.986L450.59 221.788L471.416 209.89L492.242 221.938Z" fill="#6F6DFF"/>
<g opacity="0.7">
<g opacity="0.7">
<g opacity="0.7">
<path opacity="0.7" d="M489.195 258.232L478.192 264.772L466.906 258.015L478.059 251.625L489.195 258.232Z" fill="#6F6DFF"/>
</g>
</g>
</g>
<path opacity="0.5" d="M81.1124 132.093L308.04 0.911932C311.746 -1.21812 314.688 0.512548 314.788 4.75601L315.22 160.15C315.109 162.479 314.448 164.749 313.292 166.773C312.137 168.798 310.519 170.52 308.572 171.798L217.92 224.151L224.835 265.953L200.718 279.898L176.6 293.844L183.249 244.187L81.5944 302.946C77.9045 305.076 74.8628 303.346 74.8462 299.102L74.4141 143.708C74.5364 141.381 75.207 139.115 76.3712 137.096C77.5353 135.077 79.1599 133.363 81.1124 132.093Z" fill="#ACA8FF"/>
<path opacity="0.79" d="M95.0264 146.022L321.971 14.8571C325.66 12.7105 328.619 14.4411 328.619 18.7012L329.068 174.095C328.941 176.42 328.273 178.684 327.119 180.706C325.965 182.729 324.356 184.453 322.419 185.744L231.801 238.113L238.732 279.932L214.598 293.877L190.515 307.855L197.163 258.182L95.5251 316.875C91.8186 319.022 88.8766 317.291 88.7769 313.031L88.3281 157.637C88.466 155.313 89.1432 153.053 90.306 151.037C91.4687 149.02 93.085 147.303 95.0264 146.022Z" stroke="#ACA8FF" stroke-width="1.5" stroke-linecap="round" stroke-linejoin="round" stroke-dasharray="3.43 3.43"/>
<path d="M109.452 160.449L336.38 29.2848C340.07 27.1381 343.111 28.8688 343.128 33.1289L343.56 188.523C343.447 190.851 342.786 193.121 341.631 195.145C340.475 197.169 338.858 198.892 336.912 200.171L246.294 252.557L253.225 294.359L229.107 308.305L204.974 322.25L211.622 272.576L109.934 331.319C106.228 333.449 103.286 331.719 103.186 327.458L102.754 172.065C102.88 169.738 103.552 167.473 104.716 165.455C105.88 163.437 107.503 161.722 109.452 160.449Z" fill="url(#paint7_linear_197_2460)"/>
<path d="M122.875 175.776V290.549L329.143 173.463V57.9573L122.875 175.776Z" fill="#8794EE"/>
<path opacity="0.2" d="M131.527 189.388V228.428L165.285 208.908V169.868L131.527 189.388Z" fill="#2B2A40"/>
<path opacity="0.2" d="M278.836 103.221V142.261L312.593 122.741V83.7009L278.836 103.221Z" fill="#2B2A40"/>
<path opacity="0.2" d="M169.953 167.988V207.027L276.777 143.292V104.269L169.953 167.988Z" fill="#2B2A40"/>
<path opacity="0.2" d="M131.527 235.733V274.773L203.729 233.171V194.131L131.527 235.733Z" fill="#2B2A40"/>
<path opacity="0.2" d="M206.102 192.783V231.823L312.925 168.104V129.064L206.102 192.783Z" fill="#2B2A40"/>
<path d="M182.648 218.676V257.699L216.422 238.179V199.14L182.648 218.676Z" fill="#8794EE"/>
<path opacity="0.69" d="M182.648 265.204V304.244L254.85 262.642V223.602L182.648 265.204Z" fill="#7789FF"/>
<path opacity="0.69" d="M257.398 222.936V261.976L364.222 198.241V159.201L257.398 222.936Z" fill="#ACA8FF"/>
<path opacity="0.7" d="M182.649 304.244L132.055 275.289" stroke="white" stroke-width="1.14" stroke-linecap="round" stroke-linejoin="round" stroke-dasharray="3.43 3.43"/>
<path opacity="0.7" d="M251.305 225.066L200.711 196.111" stroke="white" stroke-width="1.14" stroke-linecap="round" stroke-linejoin="round" stroke-dasharray="3.43 3.43"/>
<path opacity="0.7" d="M215.344 198.824L164.766 169.868" stroke="white" stroke-width="1.14" stroke-linecap="round" stroke-linejoin="round" stroke-dasharray="3.43 3.43"/>
<path opacity="0.7" d="M182.649 257.367L132.055 228.411" stroke="white" stroke-width="1.14" stroke-linecap="round" stroke-linejoin="round" stroke-dasharray="3.43 3.43"/>
<path opacity="0.7" d="M220.11 197.01L169.516 168.054" stroke="white" stroke-width="1.14" stroke-linecap="round" stroke-linejoin="round" stroke-dasharray="3.43 3.43"/>
<path opacity="0.7" d="M327.351 171.832L276.773 142.876" stroke="white" stroke-width="1.14" stroke-linecap="round" stroke-linejoin="round" stroke-dasharray="3.43 3.43"/>
<path opacity="0.7" d="M329.414 132.293L278.836 103.337" stroke="white" stroke-width="1.14" stroke-linecap="round" stroke-linejoin="round" stroke-dasharray="3.43 3.43"/>
<path opacity="0.7" d="M362.356 113.172L311.762 84.2168" stroke="white" stroke-width="1.14" stroke-linecap="round" stroke-linejoin="round" stroke-dasharray="3.43 3.43"/>
<path opacity="0.7" d="M363.188 158.985L312.594 130.03" stroke="white" stroke-width="1.14" stroke-linecap="round" stroke-linejoin="round" stroke-dasharray="3.43 3.43"/>
<path opacity="0.69" d="M220.113 197.409V236.449L326.92 172.73V133.691L220.113 197.409Z" fill="url(#paint8_linear_197_2460)"/>
<path d="M330.703 131.977V171.016L364.461 151.496V112.457L330.703 131.977Z" fill="#8794EE"/>
<defs>
<linearGradient id="paint0_linear_197_2460" x1="289.821" y1="296.639" x2="547.066" y2="296.639" gradientUnits="userSpaceOnUse">
<stop stop-color="#6F6DFF"/>
<stop offset="1" stop-color="#60D5DE"/>
</linearGradient>
<linearGradient id="paint1_linear_197_2460" x1="45140.6" y1="23840.3" x2="84937.6" y2="23840.3" gradientUnits="userSpaceOnUse">
<stop stop-color="#6F6DFF"/>
<stop offset="1" stop-color="#A25FFD"/>
</linearGradient>
<linearGradient id="paint2_linear_197_2460" x1="44243.9" y1="22937.6" x2="81137.9" y2="22937.6" gradientUnits="userSpaceOnUse">
<stop stop-color="#6F6DFF"/>
<stop offset="1" stop-color="#60D5DE"/>
</linearGradient>
<linearGradient id="paint3_linear_197_2460" x1="392.648" y1="226.797" x2="449.661" y2="325.419" gradientUnits="userSpaceOnUse">
<stop stop-color="#A25FFD"/>
<stop offset="0.38" stop-color="#FEFEFF" stop-opacity="0.01"/>
<stop offset="0.52" stop-color="#FBFCFE" stop-opacity="0.04"/>
<stop offset="0.61" stop-color="#F6F9FD" stop-opacity="0.09"/>
<stop offset="0.69" stop-color="#EFF4FB" stop-opacity="0.16"/>
<stop offset="0.76" stop-color="#E6EDF9" stop-opacity="0.26"/>
<stop offset="0.82" stop-color="#DBE4F6" stop-opacity="0.37"/>
<stop offset="0.87" stop-color="#DAC4F8"/>
<stop offset="0.92" stop-color="#D5B7FF"/>
<stop offset="0.97" stop-color="#A25FFD"/>
<stop offset="1" stop-color="#A25FFD"/>
</linearGradient>
<linearGradient id="paint4_linear_197_2460" x1="414.395" y1="193.731" x2="467.515" y2="193.731" gradientUnits="userSpaceOnUse">
<stop stop-color="#6F6DFF"/>
<stop offset="1" stop-color="#ACA8FF"/>
</linearGradient>
<linearGradient id="paint5_linear_197_2460" x1="366.887" y1="268.616" x2="399.863" y2="268.616" gradientUnits="userSpaceOnUse">
<stop stop-color="#2842EF"/>
<stop offset="1" stop-color="#A25FFD"/>
</linearGradient>
<linearGradient id="paint6_linear_197_2460" x1="8049.67" y1="3570.28" x2="8704.25" y2="3570.28" gradientUnits="userSpaceOnUse">
<stop stop-color="#6F6DFF"/>
<stop offset="1" stop-color="#60D5DE"/>
</linearGradient>
<linearGradient id="paint7_linear_197_2460" x1="343.56" y1="180.302" x2="102.754" y2="180.302" gradientUnits="userSpaceOnUse">
<stop stop-color="#ABB4EB"/>
<stop offset="1" stop-color="#BC8DFC"/>
</linearGradient>
<linearGradient id="paint8_linear_197_2460" x1="14364.6" y1="11561.4" x2="21229.1" y2="11561.4" gradientUnits="userSpaceOnUse">
<stop stop-color="#6F6DFF"/>
<stop offset="1" stop-color="#ACA8FF"/>
</linearGradient>
</defs>
</svg>
