<svg width="16" height="16" viewBox="0 0 16 16" fill="none" xmlns="http://www.w3.org/2000/svg">
<path d="M9.87897 2.83984C9.74657 3.07697 9.62858 3.32186 9.52563 3.57318C8.51414 3.41321 7.48379 3.41321 6.4723 3.57318C6.36936 3.32186 6.25137 3.07697 6.11897 2.83984C5.16616 3.00264 4.2399 3.2942 3.36564 3.70651C1.80226 5.9627 1.09326 8.70181 1.36563 11.4332C2.38446 12.1991 3.52794 12.7832 4.74563 13.1598C5.02291 12.7936 5.27037 12.4057 5.48563 11.9998C5.08835 11.8534 4.7065 11.668 4.34563 11.4465C4.44461 11.3807 4.53823 11.3071 4.62563 11.2265C5.67794 11.7334 6.83095 11.9966 7.99897 11.9966C9.16699 11.9966 10.32 11.7334 11.3723 11.2265C11.4656 11.3065 11.559 11.3798 11.6523 11.4465C11.2895 11.6663 10.908 11.8537 10.5123 12.0065C10.7186 12.4215 10.9595 12.8185 11.2323 13.1932C12.4485 12.8179 13.59 12.2336 14.6056 11.4665C14.8846 8.73465 14.175 5.9933 12.6056 3.73984C11.7412 3.319 10.8241 3.01629 9.87897 2.83984ZM5.78563 9.87318C5.45202 9.84923 5.14066 9.69697 4.91692 9.44836C4.69317 9.19975 4.57443 8.87413 4.58563 8.53984C4.57274 8.20512 4.69089 7.87857 4.91498 7.62958C5.13906 7.3806 5.45141 7.22882 5.78563 7.20651C6.11986 7.22882 6.43221 7.3806 6.65629 7.62958C6.88038 7.87857 6.99853 8.20512 6.98563 8.53984C6.99853 8.87457 6.88038 9.20112 6.65629 9.4501C6.43221 9.69908 6.11986 9.85086 5.78563 9.87318ZM10.2123 9.87318C9.87869 9.84923 9.56733 9.69697 9.34358 9.44836C9.11983 9.19975 9.0011 8.87413 9.0123 8.53984C8.99941 8.20512 9.11756 7.87857 9.34164 7.62958C9.56573 7.3806 9.87807 7.22882 10.2123 7.20651C10.5471 7.22716 10.8605 7.37844 11.0849 7.62781C11.3094 7.87717 11.4269 8.20468 11.4123 8.53984C11.4269 8.87501 11.3094 9.20252 11.0849 9.45188C10.8605 9.70124 10.5471 9.85253 10.2123 9.87318Z" fill="#A25FFD"/>
</svg>
