<svg width="16" height="16" viewBox="0 0 16 16" fill="none" xmlns="http://www.w3.org/2000/svg">
<path d="M4.00078 2.3998C4.00078 3.2798 3.44078 3.9998 2.40078 3.9998C1.44078 3.9998 0.800781 3.2798 0.800781 2.4798C0.800781 1.5998 1.44078 0.799805 2.40078 0.799805C3.36078 0.799805 4.00078 1.5198 4.00078 2.3998ZM0.800781 15.1998H4.00078V4.79981H0.800781V15.1998ZM11.6808 4.95981C10.0008 4.95981 9.04078 5.91981 8.64078 6.5598H8.56078L8.40078 5.19981H5.52078C5.52078 6.07981 5.60078 7.1198 5.60078 8.31981V15.1998H8.80078V9.5198C8.80078 9.19981 8.80078 8.95981 8.88078 8.71981C9.12078 8.1598 9.52078 7.43981 10.4008 7.43981C11.5208 7.43981 12.0008 8.39981 12.0008 9.67981V15.1998H15.2008V9.27981C15.2008 6.31981 13.6808 4.95981 11.6808 4.95981Z" fill="#A25FFD"/>
</svg>
